<?xml version="1.0" encoding="iso-8859-1"?>
<!-- Generator: Adobe Illustrator 18.0.0, SVG Export Plug-In . SVG Version: 6.00 Build 0)  -->
<!DOCTYPE svg PUBLIC "-//W3C//DTD SVG 1.1//EN" "http://www.w3.org/Graphics/SVG/1.1/DTD/svg11.dtd">
<svg xmlns="http://www.w3.org/2000/svg" xmlns:xlink="http://www.w3.org/1999/xlink" version="1.1" id="Capa_1" x="0px" y="0px" viewBox="0 0 298 298" style="enable-background:new 0 0 298 298;" xml:space="preserve" width="512px" height="512px">
<g>
	<path d="M149,130.417c-18.013,0-32.667,14.654-32.667,32.666c0,18.013,14.654,32.667,32.667,32.667s32.667-14.654,32.667-32.667   C181.667,145.071,167.013,130.417,149,130.417z" fill="#FFFFFF"/>
	<path d="M273.25,64.083H264v-3.417c0-13.669-11.081-24.75-24.75-24.75h-65.5c-13.669,0-24.75,11.081-24.75,24.75v3.417H24.75   C11.081,64.083,0,75.164,0,88.834v148.5c0,13.669,11.081,24.75,24.75,24.75h248.5c13.669,0,24.75-11.081,24.75-24.75v-148.5   C298,75.164,286.919,64.083,273.25,64.083z M45.928,130.417c-11.046,0-20-8.954-20-20c0-11.046,8.954-20,20-20s20,8.954,20,20   C65.928,121.462,56.974,130.417,45.928,130.417z M149,235.75c-40.068,0-72.667-32.599-72.667-72.667S108.932,90.417,149,90.417   s72.667,32.598,72.667,72.666S189.068,235.75,149,235.75z" fill="#FFFFFF"/>
</g>
<g>
</g>
<g>
</g>
<g>
</g>
<g>
</g>
<g>
</g>
<g>
</g>
<g>
</g>
<g>
</g>
<g>
</g>
<g>
</g>
<g>
</g>
<g>
</g>
<g>
</g>
<g>
</g>
<g>
</g>
</svg>
