<?xml version="1.0" encoding="iso-8859-1"?>
<!-- Generator: Adobe Illustrator 18.1.1, SVG Export Plug-In . SVG Version: 6.00 Build 0)  -->
<svg xmlns="http://www.w3.org/2000/svg" xmlns:xlink="http://www.w3.org/1999/xlink" version="1.1" id="Capa_1" x="0px" y="0px" viewBox="0 0 387.694 387.694" style="enable-background:new 0 0 387.694 387.694;" xml:space="preserve" width="512px" height="512px">
<g>
	<path d="M193.846,78.847c-63.514,0-115,51.486-115,115s51.486,115,115,115s115-51.486,115-115S257.36,78.847,193.846,78.847z    M193.846,274.923c-44.705,0-81.075-36.371-81.075-81.076c0-44.705,36.37-81.075,81.075-81.075s81.075,36.37,81.075,81.075   C274.921,238.552,238.551,274.923,193.846,274.923z" fill="#FFFFFF"/>
	<path d="M193.846,126.285c-37.254,0-67.562,30.308-67.562,67.562c0,37.254,30.308,67.563,67.562,67.563   s67.561-30.309,67.561-67.563C261.408,156.593,231.1,126.285,193.846,126.285z" fill="#FFFFFF"/>
	<path d="M380.473,87.576h-0.236c-3.988,0-7.221,3.233-7.221,7.221v60.981c-0.205,3.436-3.051,6.16-6.539,6.16h-0.213   c-3.488,0-6.332-2.725-6.539-6.16V94.797c0-3.987-3.232-7.221-7.219-7.221h-0.238c-3.986,0-7.221,3.233-7.221,7.221v60.981   c-0.205,3.436-3.051,6.16-6.537,6.16h-0.215c-3.486,0-6.332-2.725-6.537-6.16V94.797c0-3.987-3.232-7.221-7.221-7.221h-0.236   c-3.988,0-7.221,3.233-7.221,7.221v69.739c0,11.157,9.045,20.201,20.201,20.201h8.881c-2.439,31.133-6.076,62.265-8.266,93.398   c-0.621,13.687,3.912,21.544,14.49,21.982c10.576-0.439,15.109-8.296,14.49-21.982c-2.189-31.133-5.827-62.265-8.266-93.398h8.881   c11.156,0,20.201-9.044,20.201-20.201V94.797C387.694,90.81,384.461,87.576,380.473,87.576z" fill="#FFFFFF"/>
	<path d="M39.225,86.576c-20.387,0-33.709,31.454-37.816,47.126c-6.169,23.54,8.547,43.855,31.994,46.757   c-2.422,32.893-6.351,65.784-8.668,98.676c-0.619,13.687,3.912,21.544,14.49,21.982c10.576-0.439,15.111-8.296,14.49-21.982   c-2.312-32.893-6.244-65.783-8.668-98.676c23.447-2.9,38.165-23.22,31.994-46.758C72.934,118.03,59.612,86.576,39.225,86.576z" fill="#FFFFFF"/>
</g>
<g>
</g>
<g>
</g>
<g>
</g>
<g>
</g>
<g>
</g>
<g>
</g>
<g>
</g>
<g>
</g>
<g>
</g>
<g>
</g>
<g>
</g>
<g>
</g>
<g>
</g>
<g>
</g>
<g>
</g>
</svg>
