<svg class="nc-icon outline" xmlns="http://www.w3.org/2000/svg" xmlns:xlink="http://www.w3.org/1999/xlink" x="0px" y="0px" width="48px" height="48px" viewBox="0 0 48 48"><g transform="translate(0.5, 0.5)">
<path data-cap="butt" data-color="color-2" fill="none" stroke="#444444" stroke-width="1" stroke-miterlimit="10" d="M15.665,33.167l-0.068,0.034
	C18.183,37.22,23.652,40,30,40c1.179,0,2.326-0.102,3.432-0.284L42,44v-8.081c2.482-2.114,4-4.881,4-7.919
	c0-3.104-1.57-5.91-4.148-8.041" stroke-linejoin="miter" stroke-linecap="butt"></path>
<path fill="none" stroke="#444444" stroke-width="1" stroke-linecap="square" stroke-miterlimit="10" d="M22,2
	C10.954,2,2,9.163,2,18c0,3.594,1.499,6.9,4,9.571V38l9.665-4.833C17.658,33.7,19.783,34,22,34c11.046,0,20-7.163,20-16
	S33.046,2,22,2z" stroke-linejoin="miter"></path>
</g></svg>