<?xml version="1.0" encoding="iso-8859-1"?>
<!-- Generator: Adobe Illustrator 19.0.0, SVG Export Plug-In . SVG Version: 6.00 Build 0)  -->
<svg xmlns="http://www.w3.org/2000/svg" xmlns:xlink="http://www.w3.org/1999/xlink" version="1.1" id="Capa_1" x="0px" y="0px" viewBox="0 0 448.002 448.002" style="enable-background:new 0 0 448.002 448.002;" xml:space="preserve" width="512px" height="512px">
<g>
	<g>
		<path d="M400.001,288.002v-80h-160v80c0,41.442,31.631,75.125,72,79.191v64.809h-56v16h128v-16h-56v-64.809    C368.37,363.126,400.001,329.442,400.001,288.002z M256.001,224.002h128v48h-128V224.002z M320.001,352.002    c-35.291,0-64-28.711-64-64h128C384.001,323.29,355.292,352.002,320.001,352.002z" fill="#FFFFFF"/>
	</g>
</g>
<g>
	<g>
		<rect x="112.001" y="304" width="32" height="16" fill="#FFFFFF"/>
	</g>
</g>
<g>
	<g>
		<rect x="112.001" y="336" width="32" height="16" fill="#FFFFFF"/>
	</g>
</g>
<g>
	<g>
		<path d="M160.001,134.754V0h-64v134.754c-28.23,12.355-48,40.459-48,73.246v224c0,8.836,7.163,16,16,16h128    c8.837,0,16-7.164,16-16V208C208.001,175.213,188.231,147.11,160.001,134.754z M112.001,16h32v16h-32V16z M192.001,432h-128V320    h16v80h96v-80h16V432z M96.001,384v-96h64v96H96.001z M192.001,304h-16v-32h-96v32h-16v-96c0-25.379,15.079-48.375,38.415-58.59    l9.585-4.194V48h32v97.217l9.585,4.194c23.336,10.214,38.415,33.21,38.415,58.59V304z" fill="#FFFFFF"/>
	</g>
</g>
<g>
</g>
<g>
</g>
<g>
</g>
<g>
</g>
<g>
</g>
<g>
</g>
<g>
</g>
<g>
</g>
<g>
</g>
<g>
</g>
<g>
</g>
<g>
</g>
<g>
</g>
<g>
</g>
<g>
</g>
</svg>
