<?xml version="1.0" encoding="iso-8859-1"?>
<!-- Generator: Adobe Illustrator 18.0.0, SVG Export Plug-In . SVG Version: 6.00 Build 0)  -->
<!DOCTYPE svg PUBLIC "-//W3C//DTD SVG 1.1//EN" "http://www.w3.org/Graphics/SVG/1.1/DTD/svg11.dtd">
<svg xmlns="http://www.w3.org/2000/svg" xmlns:xlink="http://www.w3.org/1999/xlink" version="1.1" id="Capa_1" x="0px" y="0px" viewBox="0 0 430.116 430.116" style="enable-background:new 0 0 430.116 430.116;" xml:space="preserve" width="512px" height="512px">
<path d="M429.384,266.136l-13.732-30.801l13.926-31.233c0.827-1.856,0.659-4.005-0.447-5.71c-1.106-1.705-3.001-2.733-5.033-2.733  h-45.089c-6.13-23.675-24.62-41.915-47.316-46.114c-5.132-0.95-10.223-1.135-15.196-0.594c-9.134-29.097-33.282-51.078-61.61-55.449  c-27.034-4.168-52.248,7.634-70.338,32.559c-18.722-25.647-45.563-37.551-73.279-32.036c-31.651,6.304-56.435,33.596-61.671,67.911  c-3.307,21.676,1.133,44.685,12.863,67.4h-38.7l12.447-9.494c2.635-2.01,3.142-5.774,1.132-8.409  c-2.009-2.635-5.774-3.143-8.409-1.132L2.362,230.565c-2.635,2.01-3.142,5.774-1.132,8.409c0.334,0.438,0.719,0.809,1.136,1.127  l-0.004,0.005l26.568,20.265c1.087,0.829,2.365,1.23,3.634,1.23c1.808,0,3.595-0.814,4.775-2.361  c2.01-2.635,1.503-6.399-1.132-8.409l-12.447-9.494h45.595c0.987,1.559,2.004,3.114,3.06,4.667  c22.322,32.812,59.086,63.327,109.268,90.701c0.121,0.066,1.354,0.733,2.868,0.733c1.514,0,1.97-0.236,2.882-0.733  c15.909-8.679,30.624-17.804,43.868-27.154c11.732,8.991,25.685,18.097,42.289,27.154c0.116,0.064,1.09,0.733,2.868,0.733  s1.969-0.236,2.881-0.733c34.335-18.729,60.497-39.475,77.87-61.691h66.889c0.005,0,0.013,0,0.02,0c3.314,0,6-2.686,6-6  C430.116,267.97,429.851,266.99,429.384,266.136z M405.188,229.336h-22.714l9.663-21.677h22.716L405.188,229.336z M356.283,263.012  l-9.665-21.677h22.716l9.663,21.677H356.283z M369.334,229.336h-22.716l9.665-21.677h22.714L369.334,229.336z M184.55,324.58  c-47.012-26.033-81.397-54.729-102.214-85.327c-17.311-25.445-24.53-51.556-20.876-75.508c4.477-29.342,25.435-52.631,52.151-57.951  c25.571-5.097,49.563,7.369,65.812,34.196l0.005-0.003c0.485,0.804,1.163,1.507,2.022,2.026c2.835,1.719,6.525,0.811,8.24-2.023  c15.63-25.808,38.716-38.424,63.364-34.629c23.558,3.635,43.742,21.931,51.722,46.287c-10.64,3.777-20.369,11.059-28.311,21.393  c-14.497-18.882-34.888-27.551-55.954-23.357c-24.636,4.906-43.921,26.117-47.989,52.781c-2.64,17.307-1.233,56.404,49.059,99.24  C210.254,309.542,197.85,317.213,184.55,324.58z M276.453,324.573c-91.78-51.056-95.007-101.041-92.068-120.298  c3.309-21.69,18.769-38.899,38.47-42.823c18.801-3.741,36.467,5.48,48.476,25.309l0.004-0.003c0.485,0.804,1.164,1.507,2.023,2.026  c2.834,1.718,6.523,0.811,8.24-2.023c11.864-19.59,29.328-28.859,47.911-25.416c17.157,3.175,31.334,16.587,37.007,34.314h-14.126  c-2.368,0-4.516,1.394-5.48,3.557l-13.429,30.12h-57.017c-3.314,0-6,2.686-6,6c0,3.313,2.686,6,6,6h57.017l12.64,28.35  C330.253,289.218,306.855,307.654,276.453,324.573z M392.137,263.012l-9.663-21.677h22.714l9.665,21.677H392.137z" fill="#FFFFFF"/>
<g>
</g>
<g>
</g>
<g>
</g>
<g>
</g>
<g>
</g>
<g>
</g>
<g>
</g>
<g>
</g>
<g>
</g>
<g>
</g>
<g>
</g>
<g>
</g>
<g>
</g>
<g>
</g>
<g>
</g>
</svg>
